<svg width="212" height="212" viewBox="0 0 212 212" fill="none" xmlns="http://www.w3.org/2000/svg">
<path d="M208.194 106.236C208.194 107.979 208.453 109.726 208.368 111.448C208.281 113.189 208.627 114.98 208.455 116.696C208.281 118.429 207.541 120.109 207.282 121.816C207.02 123.537 205.925 125.095 205.58 126.787C205.232 128.491 205.139 130.228 204.707 131.901C204.272 133.585 204.287 135.392 203.77 137.041C203.25 138.699 203.052 140.489 202.452 142.11C201.848 143.739 200.097 144.909 199.414 146.498C198.728 148.094 198.853 150.055 198.09 151.608C197.324 153.167 196.827 154.897 195.985 156.409C195.142 157.926 194.049 159.332 193.132 160.8C192.212 162.272 190.186 163.004 189.195 164.425C188.203 165.848 187.465 167.42 186.404 168.789C185.341 170.16 184.943 172.075 183.813 173.389C182.683 174.704 180.808 175.346 179.614 176.602C178.42 177.858 177.611 179.488 176.355 180.682C175.099 181.877 173.584 182.779 172.268 183.909C170.954 185.039 170.058 186.691 168.687 187.753C167.317 188.815 165.233 188.896 163.81 189.888C162.389 190.879 161.411 192.516 159.939 193.435C158.47 194.352 156.719 194.782 155.202 195.626C153.689 196.467 152.62 198.174 151.062 198.94C149.509 199.703 147.457 199.397 145.861 200.083C144.272 200.766 142.964 202.147 141.335 202.75C139.713 203.351 137.778 203.017 136.119 203.537C134.47 204.054 132.908 204.803 131.225 205.237C129.552 205.669 127.816 205.735 126.111 206.084C124.42 206.43 122.748 206.726 121.027 206.987C119.321 207.247 117.666 207.76 115.934 207.934C114.217 208.106 112.506 208.177 110.765 208.263C109.043 208.349 107.333 209.002 105.59 209.002C103.847 209.002 102.11 208.885 100.388 208.799C98.6473 208.712 96.8824 208.904 95.166 208.732C93.4332 208.558 91.802 207.623 90.0956 207.364C88.3745 207.103 86.5078 207.662 84.8163 207.316C83.1117 206.967 81.4523 206.348 79.7793 205.917C78.0954 205.481 76.6551 204.226 75.006 203.709C73.3474 203.189 71.3277 203.723 69.7061 203.123C68.0767 202.519 66.615 201.444 65.0258 200.761C63.4299 200.075 62.1774 198.669 60.6242 197.906C59.066 197.14 57.3603 196.697 55.8477 195.856C54.3308 195.012 52.6265 194.482 51.1581 193.564C49.6865 192.645 48.3906 191.449 46.9703 190.458C45.5472 189.466 43.7613 188.942 42.3923 187.881C41.0215 186.818 39.6119 185.75 38.2978 184.621C36.9826 183.491 36.0576 181.898 34.8016 180.704C33.5452 179.51 31.9228 178.652 30.7281 177.396C29.5337 176.14 29.0438 174.231 27.9139 172.916C26.7847 171.602 25.1192 170.715 24.0567 169.345C22.9952 167.975 21.8699 166.618 20.8776 165.195C19.887 163.774 19.6333 161.854 18.714 160.383C17.7968 158.914 16.0761 157.903 15.2324 156.386C14.3911 154.873 13.8801 153.154 13.1144 151.595C12.3512 150.043 12.276 148.169 11.5904 146.573C10.9073 144.984 10.2129 143.412 9.60926 141.783C9.0085 140.162 7.5907 138.805 7.07083 137.146C6.5538 135.497 6.2324 133.758 5.79769 132.075C5.36583 130.402 6.12693 128.455 5.77845 126.75C5.43246 125.059 4.90653 123.424 4.64499 121.703C4.38559 119.996 3.90135 118.329 3.7271 116.597C3.55464 114.88 3.74741 113.147 3.66047 111.407C3.5746 109.685 3.24643 107.98 3.24643 106.236C3.24643 104.493 3.58814 102.788 3.67401 101.066C3.76095 99.3261 2.95139 97.532 3.12385 95.8156C3.29809 94.0828 4.56838 92.504 4.82743 90.7975C5.08897 89.0765 3.98722 87.1182 4.33285 85.4263C4.68133 83.7221 5.25074 82.0402 5.6826 80.3673C6.11731 78.6833 6.48967 76.9541 7.00669 75.3047C7.52656 73.646 8.2898 72.0436 8.89056 70.4223C9.49417 68.7929 9.98839 67.0925 10.6711 65.5033C11.357 63.9074 13.0421 62.7678 13.8053 61.215C14.571 59.6568 15.3724 58.1431 16.214 56.6306C17.0578 55.1137 17.3097 53.2523 18.2269 51.7839C19.1462 50.3123 20.2209 48.929 21.2115 47.5084C22.2038 46.0852 23.2749 44.7112 24.3364 43.3423C25.3989 41.9715 26.7316 40.8227 27.8608 39.5086C28.991 38.1934 29.7286 36.5155 30.923 35.2595C32.1177 34.0031 33.2316 32.6305 34.488 31.4358C35.744 30.2414 37.3924 29.4553 38.7076 28.3254C40.0217 27.1963 41.3016 26.0129 42.6724 24.9504C44.0413 23.8889 45.679 23.1926 47.1021 22.2003C48.5228 21.2097 50.1405 20.5509 51.6125 19.6319C53.0809 18.7147 54.1017 17.0454 55.6186 16.2016C57.1312 15.3603 58.7585 14.7029 60.3167 13.9372C61.8695 13.1739 63.6387 12.8803 65.2346 12.1944C66.8238 11.5113 68.2748 10.4851 69.9042 9.88116C71.5255 9.2804 73.3274 9.21697 74.9861 8.6971C76.6351 8.18008 78.1467 7.18665 79.8306 6.75194C81.5032 6.32008 83.1288 5.58784 84.8334 5.23971C86.5249 4.89372 88.3293 5.06974 90.0499 4.8082C91.7564 4.5488 93.4895 4.47433 95.2223 4.30009C96.9387 4.12763 98.6562 3.93237 100.396 3.84542C102.119 3.75955 103.847 3.51868 105.59 3.51868C107.333 3.51868 109.1 2.98847 110.822 3.07434C112.563 3.16129 114.272 3.82618 115.988 3.99864C117.721 4.17288 119.538 3.79732 121.244 4.05672C122.966 4.31826 124.567 5.32701 126.258 5.673C127.963 6.02148 129.493 7.03486 131.166 7.46708C132.85 7.90179 134.723 7.61424 136.372 8.13126C138.03 8.65113 139.548 9.5708 141.169 10.1716C142.798 10.7752 144.608 10.9284 146.197 11.6111C147.793 12.297 149.363 13.0692 150.916 13.8321C152.474 14.5978 153.868 15.6871 155.38 16.5283C156.897 17.3721 158.502 18.0719 159.97 18.9891C161.442 19.9084 162.796 21.0137 164.216 22.0043C165.639 22.9966 167.009 24.0581 168.378 25.1196C169.749 26.1822 170.653 27.786 171.967 28.9155C173.282 30.0454 174.964 30.7406 176.22 31.935C177.476 33.1297 179.009 34.0569 180.203 35.3129C181.398 36.5689 182.356 38.052 183.486 39.3671C184.616 40.6812 185.536 42.1643 186.598 43.5347C187.659 44.904 188.431 46.4668 189.424 47.89C190.414 49.3106 192.379 50.0978 193.299 51.5694C194.216 53.0381 193.921 55.2267 194.765 56.7435C195.606 58.2561 196.779 59.5745 197.545 61.1327C198.309 62.6855 198.82 64.3396 199.506 65.9355C200.189 67.5247 201.638 68.8118 202.242 70.4412C202.842 72.0625 203.207 73.7871 203.727 75.4458C204.244 77.0948 204.002 78.958 204.437 80.642C204.869 82.3146 205.566 83.913 205.914 85.6177C206.26 87.3095 206.892 88.955 207.154 90.676C207.413 92.3825 207.277 94.1434 207.452 95.8762C207.624 97.5926 207.752 99.3094 207.838 101.05C207.924 102.771 208.194 104.492 208.194 106.236Z" fill="#FBB164"/>
<g opacity="0.2">
<path d="M105.59 3.77594C103.846 3.77594 102.098 3.34693 100.375 3.4328C98.6352 3.51975 96.9323 4.06314 95.2159 4.2356C93.4831 4.40984 91.6897 4.10946 89.9833 4.36886C88.2623 4.6304 86.6425 5.4674 84.9506 5.81339C83.246 6.16187 81.649 6.88699 79.9764 7.3192C78.2924 7.75392 76.5019 7.75641 74.8528 8.27343C73.1942 8.79331 71.5027 9.22018 69.8814 9.82094C68.252 10.4245 66.6599 11.1322 65.0711 11.8149C63.4751 12.5008 61.9829 13.4052 60.4296 14.1684C58.8715 14.9342 57.619 16.2383 56.1064 17.0796C54.5895 17.9233 52.8418 18.3331 51.3734 19.2503C49.9018 20.1696 48.8043 21.6141 47.3836 22.6047C45.9605 23.597 44.1575 24.0396 42.7882 25.1007C41.4174 26.1633 39.6557 26.7712 38.3416 27.9007C37.0264 29.0306 36.2625 30.7883 35.0065 31.9824C33.7501 33.1771 32.2553 34.1353 31.0605 35.3917C29.8662 36.6477 29.0986 38.2871 27.9684 39.6023C26.8392 40.9164 25.7175 42.2195 24.6546 43.5903C23.5935 44.9592 22.3132 46.1625 21.3209 47.5857C20.3303 49.0063 19.5542 50.5674 18.6345 52.0394C17.7174 53.5081 16.6865 54.9077 15.8428 56.425C15.0015 57.9376 14.1581 59.4548 13.3923 61.013C12.6291 62.5658 11.2868 63.8781 10.6013 65.4741C9.9182 67.0633 9.83483 68.9197 9.23122 70.5492C8.63046 72.1705 8.47653 73.9442 7.95665 75.6029C7.43963 77.252 6.69349 78.8323 6.25878 80.5162C5.82692 82.1888 5.21583 83.8311 4.86734 85.5357C4.52136 87.2276 3.9149 88.898 3.65336 90.619C3.39395 92.3254 4.37384 94.1904 4.19995 95.9232C4.02749 97.6396 2.53558 99.2645 2.44863 101.005C2.36276 102.727 2.74616 104.493 2.74616 106.236C2.74616 107.922 2.56052 109.621 2.6414 111.287C2.723 112.97 3.71037 114.58 3.87249 116.24C4.03569 117.917 4.02571 119.592 4.26872 121.244C4.51387 122.909 4.06705 124.696 4.39094 126.335C4.71769 127.985 5.39898 129.57 5.8034 131.192C6.21068 132.824 6.97855 134.354 7.46279 135.954C7.94988 137.563 8.44232 139.419 9.00495 140.994C10.019 138.9 11.1247 137.35 12.1965 136.317C13.707 134.859 15.1643 133.456 17.0831 133.449C18.6837 133.444 20.4525 134.646 22.5569 135.162C24.1725 135.559 25.8771 136.428 27.8936 136.901C29.7361 137.332 31.3449 137.678 32.7777 138.477C34.3686 139.364 36.3915 139.711 37.5677 140.955C38.7703 142.226 38.9606 144.321 39.83 145.86C40.6809 147.365 42.0142 148.683 42.6421 150.341C43.2589 151.971 43.4156 153.789 43.9084 155.471C44.4069 157.172 45.3964 158.726 45.8607 160.381C46.3507 162.129 45.7371 164.18 46.2965 165.762C46.9176 167.519 48.681 168.651 49.5305 170.052C50.4886 171.633 50.8371 173.787 52.2902 174.699C53.6567 175.557 55.6485 175.749 57.6382 175.819C59.1515 175.872 60.7546 174.908 62.7194 174.408C64.4158 173.977 65.9801 173.414 67.4802 173.067C69.2055 172.667 71.058 173.478 72.5496 173.185C74.3155 172.838 75.8684 172.346 77.3489 172.139C79.1679 171.886 80.7514 171.458 82.2169 171.404C84.0762 171.334 85.7762 170.837 87.2229 171.058C88.9824 171.327 90.5641 172.047 91.9994 172.692C93.4518 173.344 94.7933 174.325 96.2375 175.301C97.4864 176.145 99 176.816 100.47 177.859C101.693 178.728 102.556 180.343 104.066 181.324C105.76 182.425 107.608 182.463 109.151 182.844C110.972 183.294 112.545 183.393 114.269 183.104C115.96 182.82 117.603 182.393 119.316 181.671C120.878 181.013 122.338 179.976 124.01 179.168C125.548 178.424 127.547 178.532 129.25 177.825C130.832 177.169 132.272 175.946 134.053 175.454C135.812 174.968 137.555 174.677 139.189 174.656C140.953 174.633 142.623 175.414 144.285 175.617C146.024 175.83 147.716 176.477 149.392 176.571C151.106 176.667 152.729 175.471 154.43 175.047C156.15 174.618 158.069 174.511 159.349 173.269C160.519 172.133 161.095 170.303 161.997 168.682C162.8 167.238 163.537 165.663 164.198 163.973C164.816 162.395 165.91 160.915 166.461 159.232C167.002 157.584 166.908 155.71 167.436 154.064C167.979 152.372 168.038 150.517 168.624 148.935C169.259 147.22 171.033 146.074 171.788 144.622C172.658 142.947 173.278 141.351 174.409 140.225C175.594 139.047 177.183 139.476 178.805 140.761C179.994 141.702 181.069 143.162 182.33 144.127C183.841 145.284 185.326 145.991 186.726 145.452C187.92 144.991 189.323 143.775 190.046 141.712C190.531 140.328 189.872 138.384 190.242 136.576C190.56 135.019 191.019 133.399 191.304 131.692C191.579 130.055 191.893 128.389 192.183 126.751C192.484 125.051 193.009 123.414 193.374 121.861C193.793 120.08 194.427 118.481 194.999 117.106C195.784 115.22 196.515 113.338 197.755 112.721C199.009 112.098 200.752 112.271 202.666 113.549C203.389 112.087 204.272 111.181 204.904 109.701C205.545 108.204 206.076 106.664 206.626 105.151C207.182 103.621 207.569 102.043 208.035 100.5C207.939 98.7663 208.564 96.9665 208.384 95.2569C208.201 93.5312 207.323 91.8818 207.056 90.1829C206.787 88.469 207.003 86.6542 206.65 84.9699C206.295 83.2727 205.902 81.5563 205.464 79.8916C205.023 78.2155 203.965 76.7054 203.442 75.0642C202.917 73.4133 202.117 71.8655 201.512 70.2524C200.903 68.6311 199.787 67.244 199.1 65.663C198.41 64.0752 198.845 61.9715 198.079 60.4268C197.309 58.8768 195.382 57.9443 194.538 56.4399C193.691 54.9313 193.845 52.8357 192.926 51.3755C192.005 49.9121 191.126 48.3867 190.135 46.9742C189.141 45.5593 187.759 44.4069 186.697 43.0462C185.634 41.6832 184.459 40.403 183.33 39.0967C182.2 37.7893 180.508 37.0097 179.315 35.7612C178.121 34.5126 176.881 33.3553 175.626 32.168C174.371 30.9811 173.134 29.8231 171.82 28.6999C170.508 27.5779 169.196 26.5036 167.827 25.4481C166.461 24.3934 165.418 22.9236 163.998 21.9377C162.58 20.9535 161.522 19.3903 160.054 18.4771C158.589 17.5656 156.86 17.0543 155.346 16.2158C153.838 15.3803 152.216 14.7389 150.662 13.9781C149.113 13.2202 147.391 12.8497 145.8 12.1687C144.215 11.4907 143.006 9.82842 141.382 9.22909C139.765 8.63225 137.769 9.10224 136.116 8.58593C134.472 8.07247 132.764 7.84799 131.085 7.41648C129.418 6.98747 127.994 5.47738 126.295 5.13139C124.609 4.7879 122.741 5.39471 121.026 5.13531C119.326 4.87769 117.611 4.84562 115.884 4.6728C114.174 4.50141 112.489 4.15649 110.755 4.07062C109.039 3.98296 107.327 3.77594 105.59 3.77594Z" fill="white"/>
</g>
<path d="M105.751 44.7373C105.751 46.6892 104.914 48.4309 104.21 50.1284C103.48 51.8879 102.772 53.6635 101.446 54.9897C100.12 56.3156 98.3031 56.9235 96.5432 57.6532C94.8457 58.3569 93.146 59.2534 91.1937 59.2534C89.2415 59.2534 87.2015 59.1761 85.504 58.4724C83.7445 57.7426 82.3562 56.2268 81.03 54.901C79.7038 53.5747 78.7727 51.9439 78.043 50.1843C77.3389 48.4868 76.8974 46.6895 76.8974 44.7376C76.8974 42.7857 77.0959 40.8872 77.7996 39.19C78.5294 37.4305 79.2128 35.4091 80.539 34.0829C81.8652 32.7566 83.8713 32.0372 85.6305 31.3075C87.328 30.6038 89.2414 29.6043 91.1934 29.6043C93.1453 29.6043 95.016 30.7067 96.7132 31.4108C98.4727 32.1402 99.6097 33.6692 100.936 34.9954C102.262 36.3213 103.928 37.4013 104.657 39.1608C105.361 40.858 105.751 42.7853 105.751 44.7373Z" fill="#7C411E"/>
<path d="M61.1092 86.2327C61.1092 88.2691 60.9495 90.3396 59.9982 91.9841C59.0168 93.6805 57.3425 94.9676 55.646 95.9489C54.0016 96.9002 52.0728 97.2249 50.0365 97.2249C48.0001 97.2249 46.3368 96.442 44.692 95.4906C42.9956 94.509 40.7158 93.8776 39.7341 92.1808C38.7828 90.5363 39.5082 88.2687 39.5082 86.2323C39.5082 84.196 39.5952 82.3983 40.5466 80.7539C41.5282 79.0574 42.9749 77.9204 44.6717 76.9388C46.3161 75.9874 48.0001 74.6351 50.0365 74.6351C52.0728 74.6351 54.0846 75.4208 55.7291 76.3722C57.4255 77.3535 58.2711 79.2156 59.2527 80.9121C60.2045 82.5572 61.1092 84.1963 61.1092 86.2327Z" fill="#7C411E"/>
<path d="M117.674 100.799C117.674 102.498 118.172 104.279 117.559 105.757C116.924 107.288 115.753 108.652 114.598 109.806C113.443 110.961 111.713 111.248 110.181 111.884C108.703 112.496 107.29 113.112 105.59 113.112C103.89 113.112 102.227 113.099 100.749 112.485C99.2171 111.85 98.0533 110.644 96.8985 109.49C95.7444 108.336 94.8678 107.034 94.2328 105.503C93.62 104.025 92.3696 102.498 92.3696 100.798C92.3696 99.0991 93.5366 97.5374 94.1495 96.0597C94.7844 94.5279 95.961 93.4781 97.1151 92.3237C98.2696 91.1692 99.3685 90.1116 100.9 89.4763C102.378 88.8634 103.891 87.5415 105.59 87.5415C107.289 87.5415 108.78 88.9158 110.258 89.5287C111.79 90.164 113.543 90.5371 114.697 91.6912C115.852 92.8453 116.487 94.4898 117.123 96.0216C117.735 97.4996 117.674 99.0995 117.674 100.799Z" fill="#7C411E"/>
<path d="M75.4889 149.915C75.4889 151.752 74.0867 153.375 73.4247 154.972C72.7377 156.628 72.2895 158.493 71.0413 159.741C69.7934 160.989 68.0375 161.7 66.3813 162.387C64.7839 163.049 63.0525 163.963 61.2153 163.963C59.3781 163.963 57.8827 162.481 56.2853 161.818C54.6294 161.132 52.5229 161.104 51.2747 159.856C50.0265 158.608 50.0201 156.493 49.3334 154.836C48.671 153.239 47.9338 151.752 47.9338 149.915C47.9338 148.078 47.5604 146.131 48.2231 144.533C48.9098 142.877 49.9014 141.097 51.1496 139.849C52.3974 138.601 54.5639 138.54 56.2197 137.853C57.8171 137.191 59.3781 136.639 61.2153 136.639C63.0525 136.639 64.8071 136.724 66.4044 137.387C68.0606 138.073 69.9691 138.665 71.2173 139.913C72.4651 141.161 73.3944 142.93 74.0814 144.585C74.7438 146.184 75.4889 148.078 75.4889 149.915Z" fill="#7C411E"/>
<path d="M149.353 160.416C149.353 162.116 149.295 163.739 148.682 165.217C148.047 166.749 147.531 168.545 146.376 169.7C145.221 170.854 143.565 171.708 142.033 172.344C140.555 172.956 138.792 173.178 137.093 173.178C135.394 173.178 133.552 173.146 132.074 172.533C130.542 171.898 129.564 170.254 128.41 169.1C127.256 167.945 125.721 166.922 125.086 165.39C124.473 163.913 124.198 162.116 124.198 160.416C124.198 158.717 124.683 157.008 125.296 155.53C125.932 153.998 126.71 152.342 127.864 151.187C129.018 150.033 130.932 149.875 132.464 149.24C133.942 148.627 135.394 147.663 137.093 147.663C138.792 147.663 140.533 147.93 142.011 148.543C143.543 149.178 144.591 150.609 145.746 151.763C146.9 152.918 147.399 154.353 148.034 155.885C148.647 157.363 149.353 158.717 149.353 160.416Z" fill="#7C411E"/>
<path d="M186.768 104.524C186.768 106.086 186.529 107.696 185.966 109.054C185.382 110.461 184.027 111.398 182.966 112.459C181.905 113.52 180.582 113.943 179.173 114.526C177.816 115.09 176.593 116.494 175.031 116.494C173.469 116.494 172.169 115.279 170.811 114.716C169.403 114.132 167.872 113.806 166.811 112.745C165.75 111.684 164.9 110.371 164.316 108.964C163.753 107.605 163.987 106.087 163.987 104.525C163.987 102.963 163.664 101.408 164.228 100.05C164.811 98.642 165.331 96.9462 166.392 95.8851C167.452 94.8243 169.405 94.923 170.812 94.3394C172.17 93.776 173.469 93.1304 175.031 93.1304C176.593 93.1304 178.196 93.0427 179.554 93.6057C180.961 94.1894 182.115 95.3189 183.175 96.38C184.236 97.4408 185.164 98.6779 185.748 100.086C186.312 101.444 186.768 102.963 186.768 104.524Z" fill="#7C411E"/>
<path d="M159.992 60.1499C159.992 62.001 160.121 63.8236 159.256 65.3184C158.364 66.8606 157.279 68.6664 155.736 69.5586C154.242 70.4234 152.155 69.8162 150.304 69.8162C148.453 69.8162 146.778 69.7104 145.283 68.8456C143.741 67.9534 142.135 66.9229 141.243 65.3808C140.378 63.886 140.14 62.0007 140.14 60.1496C140.14 58.2981 140.567 56.5226 141.433 55.0278C142.325 53.4857 143.935 52.6807 145.477 51.7885C146.972 50.9237 148.453 49.3905 150.304 49.3905C152.155 49.3905 154.102 50.1181 155.597 50.9832C157.139 51.8754 158.54 53.3371 159.433 54.8792C160.297 56.374 159.992 58.2985 159.992 60.1499Z" fill="#7C411E"/>
<path d="M208.194 106.236C208.194 107.979 208.453 109.726 208.368 111.448C208.281 113.189 208.627 114.98 208.455 116.696C208.281 118.429 207.541 120.109 207.282 121.816C207.02 123.537 205.925 125.095 205.58 126.787C205.232 128.491 205.139 130.228 204.707 131.901C204.272 133.585 204.287 135.392 203.77 137.041C203.25 138.699 203.052 140.489 202.452 142.11C201.848 143.739 200.097 144.909 199.414 146.498C198.728 148.094 198.853 150.055 198.09 151.608C197.324 153.167 196.827 154.897 195.985 156.409C195.142 157.926 194.049 159.332 193.132 160.8C192.212 162.272 190.186 163.004 189.195 164.425C188.203 165.848 187.465 167.42 186.404 168.789C185.341 170.16 184.943 172.075 183.813 173.389C182.683 174.704 180.808 175.346 179.614 176.602C178.42 177.858 177.611 179.488 176.355 180.682C175.099 181.877 173.584 182.779 172.268 183.909C170.954 185.039 170.058 186.691 168.687 187.753C167.317 188.815 165.233 188.896 163.81 189.888C162.389 190.879 161.411 192.516 159.939 193.435C158.47 194.352 156.719 194.782 155.202 195.626C153.689 196.467 152.62 198.174 151.062 198.94C149.509 199.703 147.457 199.397 145.861 200.083C144.272 200.766 142.964 202.147 141.335 202.75C139.713 203.351 137.778 203.017 136.119 203.537C134.47 204.054 132.908 204.803 131.225 205.237C129.552 205.669 127.816 205.735 126.111 206.084C124.42 206.43 122.748 206.726 121.027 206.987C119.321 207.247 117.666 207.76 115.934 207.934C114.217 208.106 112.506 208.177 110.765 208.263C109.043 208.349 107.333 209.002 105.59 209.002C103.847 209.002 102.11 208.885 100.388 208.799C98.6473 208.712 96.8824 208.904 95.166 208.732C93.4332 208.558 91.802 207.623 90.0956 207.364C88.3745 207.103 86.5078 207.662 84.8163 207.316C83.1117 206.967 81.4523 206.348 79.7793 205.917C78.0954 205.481 76.6551 204.226 75.006 203.709C73.3474 203.189 71.3277 203.723 69.7061 203.123C68.0767 202.519 66.615 201.444 65.0258 200.761C63.4299 200.075 62.1774 198.669 60.6242 197.906C59.066 197.14 57.3603 196.697 55.8477 195.856C54.3308 195.012 52.6265 194.482 51.1581 193.564C49.6865 192.645 48.3906 191.449 46.9703 190.458C45.5472 189.466 43.7613 188.942 42.3923 187.881C41.0215 186.818 39.6119 185.75 38.2978 184.621C36.9826 183.491 36.0576 181.898 34.8016 180.704C33.5452 179.51 31.9228 178.652 30.7281 177.396C29.5337 176.14 29.0438 174.231 27.9139 172.916C26.7847 171.602 25.1192 170.715 24.0567 169.345C22.9952 167.975 21.8699 166.618 20.8776 165.195C19.887 163.774 19.6333 161.854 18.714 160.383C17.7968 158.914 16.0761 157.903 15.2324 156.386C14.3911 154.873 13.8801 153.154 13.1144 151.595C12.3512 150.043 12.276 148.169 11.5904 146.573C10.9073 144.984 10.2129 143.412 9.60926 141.783C9.0085 140.162 7.5907 138.805 7.07083 137.146C6.5538 135.497 6.2324 133.758 5.79769 132.075C5.36583 130.402 6.12693 128.455 5.77845 126.75C5.43246 125.059 4.90653 123.424 4.64499 121.703C4.38559 119.996 3.90135 118.329 3.7271 116.597C3.55464 114.88 3.74741 113.147 3.66047 111.407C3.5746 109.685 3.24643 107.98 3.24643 106.236C3.24643 104.493 3.58814 102.788 3.67401 101.066C3.76095 99.3261 2.95139 97.532 3.12385 95.8156C3.29809 94.0828 4.56838 92.504 4.82743 90.7975C5.08897 89.0765 3.98722 87.1182 4.33285 85.4263C4.68133 83.7221 5.25074 82.0402 5.6826 80.3673C6.11731 78.6833 6.48967 76.9541 7.00669 75.3047C7.52656 73.646 8.2898 72.0436 8.89056 70.4223C9.49417 68.7929 9.98839 67.0925 10.6711 65.5033C11.357 63.9074 13.0421 62.7678 13.8053 61.215C14.571 59.6568 15.3724 58.1431 16.214 56.6306C17.0578 55.1137 17.3097 53.2523 18.2269 51.7839C19.1462 50.3123 20.2209 48.929 21.2115 47.5084C22.2038 46.0852 23.2749 44.7112 24.3364 43.3423C25.3989 41.9715 26.7316 40.8227 27.8608 39.5086C28.991 38.1934 29.7286 36.5155 30.923 35.2595C32.1177 34.0031 33.2316 32.6305 34.488 31.4358C35.744 30.2414 37.3924 29.4553 38.7076 28.3254C40.0217 27.1963 41.3016 26.0129 42.6724 24.9504C44.0413 23.8889 45.679 23.1926 47.1021 22.2003C48.5228 21.2097 50.1405 20.5509 51.6125 19.6319C53.0809 18.7147 54.1017 17.0454 55.6186 16.2016C57.1312 15.3603 58.7585 14.7029 60.3167 13.9372C61.8695 13.1739 63.6387 12.8803 65.2346 12.1944C66.8238 11.5113 68.2748 10.4851 69.9042 9.88116C71.5255 9.2804 73.3274 9.21697 74.9861 8.6971C76.6351 8.18008 78.1467 7.18665 79.8306 6.75194C81.5032 6.32008 83.1288 5.58784 84.8334 5.23971C86.5249 4.89372 88.3293 5.06974 90.0499 4.8082C91.7564 4.5488 93.4895 4.47433 95.2223 4.30009C96.9387 4.12763 98.6562 3.93237 100.396 3.84542C102.119 3.75955 103.847 3.51868 105.59 3.51868C107.333 3.51868 109.1 2.98847 110.822 3.07434C112.563 3.16129 114.272 3.82618 115.988 3.99864C117.721 4.17288 119.538 3.79732 121.244 4.05672C122.966 4.31826 124.567 5.32701 126.258 5.673C127.963 6.02148 129.493 7.03486 131.166 7.46708C132.85 7.90179 134.723 7.61424 136.372 8.13126C138.03 8.65113 139.548 9.5708 141.169 10.1716C142.798 10.7752 144.608 10.9284 146.197 11.6111C147.793 12.297 149.363 13.0692 150.916 13.8321C152.474 14.5978 153.868 15.6871 155.38 16.5283C156.897 17.3721 158.502 18.0719 159.97 18.9891C161.442 19.9084 162.796 21.0137 164.216 22.0043C165.639 22.9966 167.009 24.0581 168.378 25.1196C169.749 26.1822 170.653 27.786 171.967 28.9155C173.282 30.0454 174.964 30.7406 176.22 31.935C177.476 33.1297 179.009 34.0569 180.203 35.3129C181.398 36.5689 182.356 38.052 183.486 39.3671C184.616 40.6812 185.536 42.1643 186.598 43.5347C187.659 44.904 188.431 46.4668 189.424 47.89C190.414 49.3106 192.379 50.0978 193.299 51.5694C194.216 53.0381 193.921 55.2267 194.765 56.7435C195.606 58.2561 196.779 59.5745 197.545 61.1327C198.309 62.6855 198.82 64.3396 199.506 65.9355C200.189 67.5247 201.638 68.8118 202.242 70.4412C202.842 72.0625 203.207 73.7871 203.727 75.4458C204.244 77.0948 204.002 78.958 204.437 80.642C204.869 82.3146 205.566 83.913 205.914 85.6177C206.26 87.3095 206.892 88.955 207.154 90.676C207.413 92.3825 207.277 94.1434 207.452 95.8762C207.624 97.5926 207.752 99.3094 207.838 101.05C207.924 102.771 208.194 104.492 208.194 106.236Z" stroke="#63300F" stroke-width="3" stroke-miterlimit="10"/>
</svg>
